<svg id="f15de5a1-11fd-49ef-992f-4ca488a5b222" data-name="Layer 1" xmlns="http://www.w3.org/2000/svg" viewBox="0 0 32 32"><path d="M5.222,0H26.779A5.221,5.221,0,0,1,32,5.221V26.778A5.222,5.222,0,0,1,26.778,32H5.221A5.221,5.221,0,0,1,0,26.779V5.222A5.222,5.222,0,0,1,5.222,0Z" style="fill:#005ff9"/><path d="M19.009,16A3.009,3.009,0,1,1,16,12.991,3.013,3.013,0,0,1,19.009,16ZM16,6a10,10,0,1,0,5.635,18.268l.029-.02-1.348-1.567-.022.015a7.961,7.961,0,1,1,3.472-4.983,1.487,1.487,0,0,1-1.517,1.307,1.281,1.281,0,0,1-1.189-1.385V16a5.068,5.068,0,1,0-1.475,3.566,3.247,3.247,0,0,0,2.5,1.494c.089.008.18.011.27.011a3.374,3.374,0,0,0,2.03-.685,3.77,3.77,0,0,0,1.295-1.9c.039-.128.112-.421.113-.422v-.011A8.833,8.833,0,0,0,26,16,10.016,10.016,0,0,0,16,6" style="fill:#ff9e00"/></svg>